<?xml version="1.0" encoding="UTF-8" standalone="no"?>
<svg
   id="visual"
   viewBox="0 0 1000 1290"
   width="1000"
   height="1290"
   version="1.1"
   sodipodi:docname="stacked-waves-haikei (2).svg"
   inkscape:export-filename="background"
   inkscape:export-xdpi="96"
   inkscape:export-ydpi="96"
   xmlns:inkscape="http://www.inkscape.org/namespaces/inkscape"
   xmlns:sodipodi="http://sodipodi.sourceforge.net/DTD/sodipodi-0.dtd"
   xmlns="http://www.w3.org/2000/svg"
   xmlns:svg="http://www.w3.org/2000/svg">
  <defs
     id="defs10" />
  <sodipodi:namedview
     id="namedview10"
     pagecolor="#505050"
     bordercolor="#eeeeee"
     borderopacity="1"
     inkscape:showpageshadow="0"
     inkscape:pageopacity="0"
     inkscape:pagecheckerboard="0"
     inkscape:deskcolor="#d1d1d1" />
  <path
     d="m 0,130 41.7,4.3 c 41.6,4.4 125,13 208.3,19.5 83.3,6.5 166.7,10.9 250,2.2 83.3,-8.7 166.7,-30.3 250,-34.7 83.3,-4.3 166.7,8.7 208.3,15.2 L 1000,143 V 0 H 958.3 C 916.7,0 833.3,0 750,0 666.7,0 583.3,0 500,0 416.7,0 333.3,0 250,0 166.7,0 83.3,0 41.7,0 H 0 Z"
     fill="#415a77"
     id="path1" />
  <path
     d="m 0,169 41.7,10.7 c 41.6,10.6 125,32 208.3,40.5 83.3,8.5 166.7,4.1 250,-8.7 83.3,-12.8 166.7,-34.2 250,-32 83.3,2.2 166.7,27.8 208.3,40.7 L 1000,233 v -92 l -41.7,-6.5 C 916.7,128 833.3,115 750,119.3 c -83.3,4.4 -166.7,26 -250,34.7 -83.3,8.7 -166.7,4.3 -250,-2.2 C 166.7,145.3 83.3,136.7 41.7,132.3 L 0,128 Z"
     fill="#3b526e"
     id="path2" />
  <path
     d="m 0,207 41.7,10.8 c 41.6,10.9 125,32.5 208.3,49.9 83.3,17.3 166.7,30.3 250,28.1 83.3,-2.1 166.7,-19.5 250,-19.5 83.3,0 166.7,17.4 208.3,26 l 41.7,8.7 v -80 l -41.7,-12.8 c -41.6,-12.9 -125,-38.5 -208.3,-40.7 -83.3,-2.2 -166.7,19.2 -250,32 -83.3,12.8 -166.7,17.2 -250,8.7 C 166.7,209.7 83.3,188.3 41.7,177.7 L 0,167 Z"
     fill="#354b65"
     id="path3" />
  <path
     d="m 0,311 41.7,8.5 c 41.6,8.5 125,25.5 208.3,36.2 83.3,10.6 166.7,15 250,15 83.3,0 166.7,-4.4 250,-6.5 83.3,-2.2 166.7,-2.2 208.3,-2.2 h 41.7 v -53 l -41.7,-8.7 c -41.6,-8.6 -125,-26 -208.3,-26 -83.3,0 -166.7,17.4 -250,19.5 C 416.7,296 333.3,283 250,265.7 166.7,248.3 83.3,226.7 41.7,215.8 L 0,205 Z"
     fill="#2f445c"
     id="path4" />
  <path
     d="m 0,388 41.7,32.3 c 41.6,32.4 125,97 208.3,129.4 83.3,32.3 166.7,32.3 250,12.8 83.3,-19.5 166.7,-58.5 250,-67.2 83.3,-8.6 166.7,13 208.3,23.9 L 1000,530 V 360 h -41.7 c -41.6,0 -125,0 -208.3,2.2 -83.3,2.1 -166.7,6.5 -250,6.5 -83.3,0 -166.7,-4.4 -250,-15 C 166.7,343 83.3,326 41.7,317.5 L 0,309 Z"
     fill="#293d53"
     id="path5" />
  <path
     d="m 0,452 41.7,34.5 c 41.6,34.5 125,103.5 208.3,138 83.3,34.5 166.7,34.5 250,10.8 83.3,-23.6 166.7,-71 250,-81.8 83.3,-10.8 166.7,14.8 208.3,27.7 L 1000,594 V 528 L 958.3,517.2 C 916.7,506.3 833.3,484.7 750,493.3 666.7,502 583.3,541 500,560.5 416.7,580 333.3,580 250,547.7 166.7,515.3 83.3,450.7 41.7,418.3 L 0,386 Z"
     fill="#23364b"
     id="path6" />
  <path
     d="m 0,762 41.7,25.8 c 41.6,25.9 125,77.5 208.3,96.9 83.3,19.3 166.7,6.3 250,-8.7 83.3,-15 166.7,-32 250,-14.8 83.3,17.1 166.7,68.5 208.3,94.1 L 1000,981 V 592 L 958.3,579.2 C 916.7,566.3 833.3,540.7 750,551.5 666.7,562.3 583.3,609.7 500,633.3 416.7,657 333.3,657 250,622.5 166.7,588 83.3,519 41.7,484.5 L 0,450 Z"
     fill="#1d2f42"
     id="path7" />
  <path
     d="m 0,814 41.7,25.8 c 41.6,25.9 125,77.5 208.3,96.9 83.3,19.3 166.7,6.3 250,6.3 83.3,0 166.7,13 250,38.8 83.3,25.9 166.7,64.5 208.3,83.9 L 1000,1085 V 979 L 958.3,953.3 C 916.7,927.7 833.3,876.3 750,859.2 666.7,842 583.3,859 500,874 416.7,889 333.3,902 250,882.7 166.7,863.3 83.3,811.7 41.7,785.8 L 0,760 Z"
     fill="#18283a"
     id="path8" />
  <path
     d="m 0,865 41.7,45.2 c 41.6,45.1 125,135.5 208.3,152.8 83.3,17.3 166.7,-38.3 250,-53.3 83.3,-15 166.7,10.6 250,49.3 83.3,38.7 166.7,90.3 208.3,116.2 l 41.7,25.8 v -118 l -41.7,-19.3 C 916.7,1044.3 833.3,1005.7 750,979.8 666.7,954 583.3,941 500,941 416.7,941 333.3,954 250,934.7 166.7,915.3 83.3,863.7 41.7,837.8 L 0,812 Z"
     fill="#122132"
     id="path9" />
  <path
     d="m 0,1291 h 41.7 c 41.6,0 125,0 208.3,0 83.3,0 166.7,0 250,0 83.3,0 166.7,0 250,0 83.3,0 166.7,0 208.3,0 h 41.7 v -92 l -41.7,-25.8 C 916.7,1147.3 833.3,1095.7 750,1057 666.7,1018.3 583.3,992.7 500,1007.7 416.7,1022.7 333.3,1078.3 250,1061 166.7,1043.7 83.3,953.3 41.7,908.2 L 0,863 Z"
     fill="#0d1b2a"
     id="path10" />
</svg>
