<?xml version="1.0" encoding="UTF-8" standalone="no"?>
<!-- Created with Inkscape (http://www.inkscape.org/) -->

<svg
   width="47.210369mm"
   height="55.9846mm"
   viewBox="0 0 47.210369 55.9846"
   version="1.1"
   id="svg5"
   inkscape:version="1.2.1 (9c6d41e410, 2022-07-14)"
   sodipodi:docname="r8Logo_New.svg"
   inkscape:export-filename="r8LogosDark.svg"
   inkscape:export-xdpi="107.42"
   inkscape:export-ydpi="107.42"
   xmlns:inkscape="http://www.inkscape.org/namespaces/inkscape"
   xmlns:sodipodi="http://sodipodi.sourceforge.net/DTD/sodipodi-0.dtd"
   xmlns="http://www.w3.org/2000/svg"
   xmlns:svg="http://www.w3.org/2000/svg">
  <sodipodi:namedview
     id="namedview7"
     pagecolor="#505050"
     bordercolor="#eeeeee"
     borderopacity="1"
     inkscape:showpageshadow="0"
     inkscape:pageopacity="0"
     inkscape:pagecheckerboard="0"
     inkscape:deskcolor="#505050"
     inkscape:document-units="mm"
     showgrid="false"
     inkscape:zoom="2"
     inkscape:cx="471.5"
     inkscape:cy="726.5"
     inkscape:window-width="1920"
     inkscape:window-height="1009"
     inkscape:window-x="1912"
     inkscape:window-y="-8"
     inkscape:window-maximized="1"
     inkscape:current-layer="layer1"
     showguides="false">
    <inkscape:grid
       type="xygrid"
       id="grid2726"
       originx="-372.43229"
       originy="-779.92472"
       spacingy="1"
       spacingx="1"
       units="mm"
       visible="false" />
  </sodipodi:namedview>
  <defs
     id="defs2" />
  <g
     inkscape:label="Layer 1"
     inkscape:groupmode="layer"
     id="layer1"
     transform="translate(-98.539378,-206.35508)">
    <g
       id="g1"
       transform="matrix(1.0792313,0,0,0.92169338,28.294907,17.60381)"
       inkscape:export-filename="R8BrandLight.svg"
       inkscape:export-xdpi="107.42"
       inkscape:export-ydpi="107.42">
      <path
         id="path2781-0-4"
         style="opacity:0.99;fill:#493a00;fill-opacity:0.992157;stroke:#ffffff;stroke-width:0;stroke-linecap:round;stroke-linejoin:round;stroke-dashoffset:2567.09;stroke-opacity:1;paint-order:stroke fill markers"
         d="m 65.83473,232.91863 c -10e-4,2.7e-4 -0.003,0.001 -0.003,0.001 l 5.2e-4,10e-4 c 8.5e-4,-6.9e-4 0.002,-10e-4 0.003,-0.002 z m 21.21731,0.80666 c 6.74338,1.10626 13.19102,2.14437 16.72766,2.71198 -3.50486,-0.60329 -10.10638,-1.71725 -16.72766,-2.71198 z m 19.98173,3.24787 c 0.006,0.002 0.013,0.004 0.0196,0.006 -0.007,-0.002 -0.0131,-0.004 -0.0196,-0.006 z m 0.62631,0.30076 c -1.48372,0.55091 -2.98366,1.06416 -4.43435,1.6986 l -0.005,-5.2e-4 c 0.92124,0.531 1.57298,1.54498 1.57303,2.59778 v 13.25449 c -7e-5,1.3805 -1.11906,2.30237 -2.49959,2.0593 l -1.80971,-0.31936 -1.6614,-0.29249 0.63097,1.00511 5.34335,8.25169 3.96875,-1.66191 -4.61574,-7.0404 c 1.5835,-0.12407 4.61574,-0.74288 4.61574,-3.67678 v -6.62078 -6.62079 c 0,-0.77988 -0.24912,-2.01339 -1.1064,-2.63394 z m -14.54433,10.62054 -5.4069,1.43505 c 0.1061,0.008 0.21489,0.0203 0.32866,0.0403 l 6.17688,1.08934 c 1.3893,0.23107 1.33133,-0.13983 1.32292,-1.1157 v -1.05265 z m -6.83369,1.81384 -0.005,0.002 0.002,0.002 c 0.001,-0.001 0.002,-0.002 0.004,-0.003 z" />
      <path
         style="opacity:0.99;fill:#230e00;fill-opacity:1;stroke-width:1.857;stroke-linecap:square;stroke-linejoin:round;stroke-dashoffset:2567.09;paint-order:stroke fill markers"
         d="m 66.48713,232.56956 36.73787,6.40297 c 1.45084,-0.63451 2.95121,-1.14763 4.43508,-1.69861 -0.34693,-0.28128 -0.85103,-0.35037 -0.85103,-0.35037 0,0 -28.73747,-4.59497 -33.30228,-5.50079 -2.53233,0.0782 -5.98773,0.82232 -7.01964,1.1468 z"
         id="path3857-0-2"
         sodipodi:nodetypes="cccccc" />
      <path
         style="opacity:0.99;fill:#230e00;fill-opacity:0.992157;stroke-width:1.857;stroke-linecap:square;stroke-linejoin:round;stroke-dashoffset:2567.09;paint-order:stroke fill markers"
         d="m 86.92614,249.38624 c 0.20416,-0.0538 0.53295,-0.11626 1.00445,-0.0335 l 6.45067,1.1322 c 0.48813,0.0676 1.15459,0.15455 1.15108,-0.55745 l 0.005,-1.63653 -2.42152,-0.39634 c -0.13963,-0.0229 -0.35061,-0.005 -0.49032,0.0304 -1.06439,0.26861 -4.99308,1.26152 -5.69936,1.46128 z"
         id="path3857-4-1"
         sodipodi:nodetypes="csccccccc" />
      <path
         d="m 75.05227,239.44334 c -0.51866,-0.008 -0.68846,0.23986 -0.68162,0.87643 v 19.78537 l 3.97237,-1.85828 v -18.24748 l -2.64945,-0.46715 c -0.2568,-0.0548 -0.46842,-0.0861 -0.6413,-0.0889 z"
         style="opacity:0.99;fill:#230e00;fill-opacity:1;stroke:#ffffff;stroke-width:0;stroke-linecap:round;stroke-linejoin:round;stroke-dashoffset:2567.09;stroke-opacity:1;paint-order:stroke fill markers"
         id="path1900-2" />
      <path
         d="m 102.29453,238.62883 c 1.38053,0.24379 2.49951,1.5603 2.49958,2.94085 v 13.25446 c -7e-5,1.38052 -1.11905,2.30243 -2.49958,2.05936 l -1.80981,-0.31912 -1.6613,-0.29293 0.63095,1.00525 5.34336,8.25182 -11.90625,-2.09939 -6.39501,-9.86248 c -1.55358,-2.37239 -0.8348,-4.61482 1.54099,-4.19675 l 6.17694,1.08917 c 1.3893,0.23107 1.33132,-0.13962 1.32291,-1.11549 v -5.29167 c 0,-0.63334 -0.43626,-1.09754 -1.32291,-1.25388 l -18.52084,-3.26574 c -1.02719,-0.21932 -1.33203,-0.0614 -1.32291,0.78736 v 19.78562 l -9.26042,-1.57476 -0.0227,-23.94878 c -0.007,-1.38701 1.11379,-2.3168 2.49959,-2.07279 z"
         style="opacity:0.99;fill:#ffec09;fill-opacity:0.984314;stroke:#ffffff;stroke-width:0;stroke-linecap:round;stroke-linejoin:round;stroke-dashoffset:2567.09;stroke-opacity:1;paint-order:stroke fill markers"
         id="path414-7-5-0" />
      <path
         d="m 67.67578,206.58938 14.03635,2.47499 c 0.53677,0.0946 1.05931,0.35938 1.49035,0.75526 l 2.12907,1.95516 2.28513,-1.21041 c 0.42209,-0.22407 0.92634,-0.29548 1.44332,-0.20437 l 13.30359,2.34577 c 1.38053,0.24378 2.49951,1.56031 2.49958,2.94085 v 16.56126 c -1e-5,0.19073 -0.0214,0.37271 -0.0618,0.54408 -0.25242,1.06895 -1.43181,1.36594 -2.62161,1.15646 l -12.9926,-1.96455 c -0.44419,-0.0779 -0.88049,-0.2727 -1.264,-0.56445 l -2.54868,-1.9439 -2.15801,1.0437 c -0.40885,0.19704 -0.8877,0.25581 -1.37718,0.16902 l -14.16347,-2.4974 c -1.38074,-0.24354 -2.50003,-1.56019 -2.50011,-2.94094 v -16.56126 c 8e-5,-1.38072 1.11937,-2.30266 2.50011,-2.05927 z m 4.11447,7.61274 v 7.79714 c 0,0.72682 0.77203,1.20617 1.32292,1.30332 l 7.07558,1.24762 c 0.82876,0.14613 1.0652,0.0792 1.64992,-0.20356 l 2.08056,-1.00625 c 0.79539,-0.38356 1.81929,-0.22947 2.64066,0.39742 l 2.36911,1.8055 c 0.70617,0.6091 1.12026,0.74557 1.89961,0.88299 l 6.43041,1.13386 c 0.67419,0.11887 0.98957,-0.0682 0.98957,-0.85078 v -7.95388 c 0,-0.65107 -0.72355,-1.09657 -1.32292,-1.20225 l -6.11546,-1.07832 c -0.66106,-0.11657 -1.04273,-0.12366 -1.60595,0.17498 l -2.4666,1.30782 c -0.88182,0.46769 -2.06407,0.24589 -2.9316,-0.55002 l -2.2199,-2.03965 c -0.4239,-0.4645 -0.86664,-0.67241 -1.55575,-0.79392 l -6.91724,-1.2197 c -0.80015,-0.14109 -1.32292,0.13631 -1.32292,0.84767 z m -4.13773,15.00508 c 0,0 -1.38576,-0.24404 4e-5,-3e-5 z"
         style="opacity:0.99;fill:#ffec09;fill-opacity:0.984314;stroke:#ffffff;stroke-width:0;stroke-linecap:round;stroke-linejoin:round;stroke-dashoffset:2567.09;stroke-opacity:1;paint-order:stroke fill markers"
         id="path477-2-5-4"
         sodipodi:nodetypes="ccccccccccccccccccccccscsccccscssscccccssscccc" />
      <path
         d="m 72.6941,213.31929 c -0.5586,0.0133 -0.90382,0.30465 -0.90382,0.88263 v 7.79746 c 0,0.72682 0.77203,1.20614 1.32292,1.30328 l 7.07553,1.24747 c 0.82876,0.14613 1.06531,0.0791 1.65003,-0.20361 l 2.08049,-1.00614 c 0.79539,-0.38356 1.81929,-0.2295 2.64066,0.39739 l 2.36937,1.80558 c 0.70617,0.6091 1.12027,0.7452 1.89962,0.88263 l 6.4301,1.1343 c 0.67419,0.11886 0.9896,-0.0685 0.9896,-0.85111 v -1.41749 l -3.45095,-0.60823 C 94.0183,224.54603 93.6042,224.4094 92.89803,223.8003 l -2.36937,-1.80506 c -0.82137,-0.62688 -1.84527,-0.78095 -2.64066,-0.39739 l -2.0805,1.00614 c -0.58472,0.28276 -0.82127,0.34974 -1.65003,0.20361 l -7.07552,-1.24799 c -0.55089,-0.0971 -1.32292,-0.57646 -1.32292,-1.30328 v -6.43526 l -2.64583,-0.46664 c -0.15003,-0.0265 -0.29019,-0.0382 -0.4191,-0.0351 z"
         style="opacity:0.99;fill:#230e00;fill-opacity:0.992157;stroke:#ffffff;stroke-width:0;stroke-linecap:round;stroke-linejoin:round;stroke-dashoffset:2567.09;stroke-opacity:1;paint-order:stroke fill markers"
         id="path2032-4" />
      <path
         id="path3867-6"
         style="opacity:0.99;fill:#493a00;fill-opacity:1;stroke:#ffffff;stroke-width:0;stroke-linecap:round;stroke-linejoin:round;stroke-dashoffset:2567.09;stroke-opacity:1;paint-order:stroke fill markers"
         d="m 72.89459,204.7875 c -1.95323,0 -5.27369,1.39916 -6.3469,1.8743 0.33923,-0.11227 0.72168,-0.14398 1.12809,-0.0723 l 14.03636,2.47478 c 0.53676,0.0946 1.0593,0.35962 1.49034,0.75551 l 2.12907,1.95492 2.28513,-1.21026 c 0.42209,-0.22407 0.92635,-0.29574 1.44333,-0.20464 l 13.30358,2.34611 c 1.38053,0.24378 2.49952,1.56037 2.49959,2.94091 v 16.56126 c -1e-5,0.19073 -0.0216,0.37226 -0.062,0.54363 -0.15258,0.64615 -0.57748,1.13952 -1.15187,1.3839 l 3.87728,-1.40457 c 1.13277,-0.41042 1.30535,-1.03942 1.30535,-2.26601 v -16.56126 c -7e-5,-1.38054 -1.11906,-2.69713 -2.49959,-2.94091 l -13.30358,-2.34559 c -0.51698,-0.091 -1.29409,-0.21787 -1.71618,0.006 l -2.28513,1.21026 -1.85622,-1.757 c -0.43104,-0.39588 -0.95358,-0.66039 -1.49034,-0.75499 0,0 -10.85155,-2.53369 -12.7863,-2.53369 z m -6.71432,2.03812 -0.008,0.004 v 0.001 c 0.003,-0.002 0.005,-0.003 0.008,-0.005 z m 0.95239,22.29011 c 0.17322,0.0305 0.51987,0.0915 0.51987,0.0915 -0.6929,-0.12201 -0.69308,-0.12198 -0.51987,-0.0915 z m 36.27272,5.10822 c -0.0113,0.003 -0.0233,0.005 -0.0346,0.008 l 0.006,0.003 z"
         sodipodi:nodetypes="ccccccccccccccsccccccccccccccsccccc" />
      <path
         style="opacity:0.99;fill:#230e00;fill-opacity:0.992157;stroke-width:1.857;stroke-linecap:square;stroke-linejoin:round;stroke-dashoffset:2567.09;paint-order:fill markers stroke"
         d="m 87.22232,208.12605 -4.02011,1.69349 2.12934,1.95525 3.69591,-1.94125 z"
         id="path2239-9"
         sodipodi:nodetypes="ccccc" />
    </g>
  </g>
</svg>
