<?xml version="1.0" encoding="UTF-8" standalone="no"?>
<!-- Created with Inkscape (http://www.inkscape.org/) -->

<svg
   width="115.6274mm"
   height="49.23632mm"
   viewBox="0 0 115.6274 49.23632"
   version="1.1"
   id="svg5"
   inkscape:version="1.2.1 (9c6d41e410, 2022-07-14)"
   sodipodi:docname="r8Logo.svg"
   inkscape:export-filename="r8LogosDark.svg"
   inkscape:export-xdpi="107.42"
   inkscape:export-ydpi="107.42"
   xmlns:inkscape="http://www.inkscape.org/namespaces/inkscape"
   xmlns:sodipodi="http://sodipodi.sourceforge.net/DTD/sodipodi-0.dtd"
   xmlns="http://www.w3.org/2000/svg"
   xmlns:svg="http://www.w3.org/2000/svg">
  <sodipodi:namedview
     id="namedview7"
     pagecolor="#505050"
     bordercolor="#eeeeee"
     borderopacity="1"
     inkscape:showpageshadow="0"
     inkscape:pageopacity="0"
     inkscape:pagecheckerboard="0"
     inkscape:deskcolor="#505050"
     inkscape:document-units="mm"
     showgrid="false"
     inkscape:zoom="1.0444209"
     inkscape:cx="661.13191"
     inkscape:cy="360.96558"
     inkscape:window-width="1920"
     inkscape:window-height="1009"
     inkscape:window-x="1912"
     inkscape:window-y="-8"
     inkscape:window-maximized="1"
     inkscape:current-layer="layer1" />
  <defs
     id="defs2">
    <rect
       x="299.68759"
       y="147.45013"
       width="305.4324"
       height="257.55899"
       id="rect11417" />
  </defs>
  <g
     inkscape:label="Layer 1"
     inkscape:groupmode="layer"
     id="layer1"
     transform="translate(-33.635209,-22.579877)">
    <path
       id="rect244"
       style="opacity:0.99;fill:#00d5fa;fill-opacity:1;stroke:#ffffff;stroke-width:0;stroke-linecap:round;stroke-linejoin:round;stroke-dashoffset:2567.09;stroke-opacity:1;paint-order:stroke fill markers"
       inkscape:label="rect244"
       d="m 36.515175,22.579879 h 13.679268 c 0.536768,-7.6e-5 1.059309,0.172594 1.490348,0.492476 l 2.129069,1.579749 2.285132,-1.613339 c 0.422097,-0.298503 0.926342,-0.458824 1.443323,-0.458886 h 12.920142 c 1.380535,3.61e-4 2.499512,1.11957 2.499589,2.500105 v 16.958139 c -7.7e-5,1.380535 -1.119054,2.499743 -2.499589,2.500105 H 57.669439 c -0.444199,4.45e-4 -0.880493,-0.117459 -1.264006,-0.341581 l -2.548681,-1.494482 -2.158008,1.424202 c -0.408848,0.269134 -0.887698,0.412341 -1.377177,0.411861 H 36.515175 c -1.380739,-7.5e-5 -2.500029,-1.119367 -2.500106,-2.500105 V 25.079984 c 7.7e-5,-1.380738 1.119367,-2.500031 2.500106,-2.500105 z m 2.499589,5.000211 v 11.958443 h 10.556978 l 2.829802,-1.867586 c 0.79539,-0.523816 1.819293,-0.550267 2.640665,-0.06821 l 3.304708,1.935799 h 9.615434 V 27.58009 h -9.62732 l -3.115055,2.2009 c -0.881819,0.623178 -2.064067,0.609839 -2.931604,-0.03307 l -2.919718,-2.167827 z m -2.879928,18.083651 h 34.707442 c 1.380535,3.64e-4 2.49951,1.119571 2.499589,2.500106 v 12.792501 c -7.7e-5,1.380536 -1.119052,2.499741 -2.499589,2.500105 h -3.168282 -0.302824 l 4.801258,3.757911 c 1.087987,0.850532 1.28027,2.422116 0.429431,3.509863 -0.851,1.08749 -2.422522,1.279072 -3.509863,0.427881 L 58.578427,62.92522 c -1.870243,-1.465126 -0.834803,-4.46762 1.540992,-4.468461 h 7.554577 0.668177 V 50.663436 H 38.650962 l 0.111104,18.637105 c 0.0086,1.380807 -1.103795,2.507136 -2.484603,2.515609 -1.380803,0.0086 -2.507136,-1.103799 -2.515609,-2.484603 L 33.635247,48.177283 c -0.0074,-1.385779 1.113792,-2.513196 2.499589,-2.513542 z"
       sodipodi:nodetypes="ccccccccccccccccccccccccccccccccccccccccccccccccccccc"
       inkscape:export-filename=".\r8hub_logo_dark.svg"
       inkscape:export-xdpi="107.42"
       inkscape:export-ydpi="107.42" />
    <g
       aria-label="HUB"
       transform="matrix(0.53909068,0,0,0.44793501,-91.256832,-53.473799)"
       id="text11415"
       style="font-size:140px;font-family:'Agency FB';-inkscape-font-specification:'Agency FB';letter-spacing:-14.1282px;white-space:pre;shape-inside:url(#rect11417);opacity:0.99;stroke:#ffffff;stroke-width:3.77897;stroke-linecap:square;stroke-linejoin:round;stroke-dashoffset:2567.09;paint-order:fill markers stroke">
      <path
         d="m 353.00781,278.23774 h -9.50195 v -51.40625 h -25.77149 v 51.40625 h -9.50195 V 171.25532 h 9.50195 v 47.03125 h 25.77149 v -47.03125 h 9.50195 z"
         style="fill:#ffffff;fill-opacity:1;stroke:none"
         id="path13837"
         class="UnoptimicedTransforms" />
      <path
         d="m 400.33469,270.64985 q 0,3.34961 -2.1875,5.46875 -2.11914,2.11914 -5.46875,2.11914 h -29.12109 q -3.34961,0 -5.46875,-2.11914 -2.11914,-2.11914 -2.11914,-5.46875 v -99.39453 h 9.50195 v 98.57422 h 25.36133 v -98.57422 h 9.50195 z"
         style="fill:#ffffff;fill-opacity:1;stroke:none"
         id="path13839" />
      <path
         d="m 446.15766,270.64985 q 0,3.34961 -2.11914,5.46875 -2.11914,2.11914 -5.46875,2.11914 H 403.29633 V 171.25532 h 35 q 3.34961,0 5.46875,2.11914 2.11914,2.11914 2.11914,5.46875 v 31.78711 q 0,4.23828 -3.82812,7.10937 -3.75977,2.25586 -7.51953,4.51172 l 8.0664,5.19531 q 3.55469,2.1875 3.55469,6.83594 z m -9.84375,-58.78906 v -32.19727 h -23.51562 v 38.62305 h 14.01367 z m 0.27344,57.96875 v -36.98243 l -9.63867,-6.28906 h -14.15039 v 43.27149 z"
         style="fill:#ffffff;fill-opacity:1;stroke:none"
         id="path13841" />
    </g>
  </g>
</svg>
