<?xml version="1.0" encoding="UTF-8" standalone="no"?>
<!-- Created with Inkscape (http://www.inkscape.org/) -->

<svg
   width="39.706657mm"
   height="49.236317mm"
   viewBox="0 0 39.706657 49.236317"
   version="1.1"
   id="svg5"
   inkscape:version="1.2.1 (9c6d41e410, 2022-07-14)"
   sodipodi:docname="r8Logo.svg"
   inkscape:export-filename="r8LogosDark.svg"
   inkscape:export-xdpi="107.42"
   inkscape:export-ydpi="107.42"
   xmlns:inkscape="http://www.inkscape.org/namespaces/inkscape"
   xmlns:sodipodi="http://sodipodi.sourceforge.net/DTD/sodipodi-0.dtd"
   xmlns="http://www.w3.org/2000/svg"
   xmlns:svg="http://www.w3.org/2000/svg">
  <sodipodi:namedview
     id="namedview7"
     pagecolor="#505050"
     bordercolor="#eeeeee"
     borderopacity="1"
     inkscape:showpageshadow="0"
     inkscape:pageopacity="0"
     inkscape:pagecheckerboard="0"
     inkscape:deskcolor="#505050"
     inkscape:document-units="mm"
     showgrid="false"
     inkscape:zoom="1.0444209"
     inkscape:cx="661.13191"
     inkscape:cy="360.96558"
     inkscape:window-width="1920"
     inkscape:window-height="1009"
     inkscape:window-x="1912"
     inkscape:window-y="-8"
     inkscape:window-maximized="1"
     inkscape:current-layer="layer1" />
  <defs
     id="defs2" />
  <g
     inkscape:label="Layer 1"
     inkscape:groupmode="layer"
     id="layer1"
     transform="translate(-23.248673,-19.30063)">
    <g
       id="rect244"
       inkscape:label="rect244"
       style="opacity:0.99">
      <path
         style="color:#000000;fill:#ffffff;stroke-linecap:round;stroke-linejoin:round;stroke-dashoffset:2567.09;-inkscape-stroke:none;paint-order:stroke fill markers"
         d="m 26.128638,19.300631 h 13.679268 c 0.536767,-7.6e-5 1.059309,0.172594 1.490348,0.492476 l 2.129069,1.579749 2.285132,-1.613339 c 0.422097,-0.298503 0.926343,-0.458824 1.443323,-0.458886 H 60.07592 c 1.380534,3.61e-4 2.499512,1.119571 2.499589,2.500105 v 16.958139 c -7.7e-5,1.380534 -1.119055,2.499743 -2.499589,2.500105 H 47.282902 c -0.444199,4.45e-4 -0.880493,-0.117459 -1.264006,-0.341581 l -2.548681,-1.494482 -2.158008,1.424202 C 40.903359,41.116253 40.424509,41.25946 39.93503,41.25898 H 26.128638 C 24.7479,41.258905 23.628609,40.139612 23.628532,38.758875 V 21.800736 c 7.7e-5,-1.380737 1.119368,-2.500031 2.500106,-2.500105 z m 2.499589,5.000211 v 11.958443 h 10.556978 l 2.829802,-1.867586 c 0.795389,-0.523815 1.819294,-0.550267 2.640665,-0.06821 l 3.304708,1.935799 h 9.615434 V 24.300842 h -9.62732 l -3.115055,2.2009 c -0.881818,0.623177 -2.064068,0.609838 -2.931604,-0.03307 l -2.919718,-2.167827 z m -2.879928,18.083651 h 34.707442 c 1.380534,3.64e-4 2.49951,1.119572 2.499589,2.500106 V 57.6771 c -7.7e-5,1.380535 -1.119053,2.499741 -2.499589,2.500105 h -3.168282 -0.302824 l 4.801258,3.757911 c 1.087986,0.850531 1.280269,2.422117 0.429431,3.509863 -0.850999,1.087489 -2.422523,1.279071 -3.509863,0.427881 L 48.19189,59.645972 c -1.870241,-1.465125 -0.834801,-4.46762 1.540992,-4.468461 h 7.554577 0.668177 V 47.384188 H 28.264425 l 0.111104,18.637105 c 0.0086,1.380806 -1.103796,2.507136 -2.484603,2.515609 -1.380802,0.0086 -2.507136,-1.1038 -2.515609,-2.484603 L 23.24871,44.898035 c -0.0074,-1.385778 1.113793,-2.513196 2.499589,-2.513542 z"
         id="path12009"
         sodipodi:nodetypes="ccccccccccccccccccccccccccccccccccccccccccccccccccccc" />
      <path
         style="color:#000000;fill:#00d5fa;stroke-width:0;stroke-linecap:round;stroke-linejoin:round;stroke-dashoffset:2567.09;-inkscape-stroke:none;paint-order:stroke fill markers"
         d="m 26.128638,19.300631 h 13.679268 c 0.536768,-7.6e-5 1.059309,0.172594 1.490348,0.492476 l 2.129069,1.579749 2.285132,-1.613339 c 0.422097,-0.298503 0.926342,-0.458824 1.443323,-0.458886 H 60.07592 c 1.380535,3.61e-4 2.499512,1.11957 2.499589,2.500105 v 16.958139 c -7.7e-5,1.380535 -1.119054,2.499743 -2.499589,2.500105 H 47.282902 c -0.444199,4.45e-4 -0.880493,-0.117459 -1.264006,-0.341581 l -2.548681,-1.494482 -2.158008,1.424202 C 40.903359,41.116253 40.424509,41.25946 39.93503,41.25898 H 26.128638 c -1.380739,-7.5e-5 -2.500029,-1.119367 -2.500106,-2.500105 V 21.800736 c 7.7e-5,-1.380738 1.119367,-2.500031 2.500106,-2.500105 z m 2.499589,5.000211 v 11.958443 h 10.556978 l 2.829802,-1.867586 c 0.79539,-0.523816 1.819293,-0.550267 2.640665,-0.06821 l 3.304708,1.935799 h 9.615434 V 24.300842 h -9.62732 l -3.115055,2.2009 c -0.881819,0.623178 -2.064067,0.609839 -2.931604,-0.03307 l -2.919718,-2.167827 z m -2.879928,18.083651 h 34.707442 c 1.380535,3.64e-4 2.49951,1.119571 2.499589,2.500106 V 57.6771 c -7.7e-5,1.380536 -1.119052,2.499741 -2.499589,2.500105 h -3.168282 -0.302824 l 4.801258,3.757911 c 1.087987,0.850532 1.28027,2.422116 0.429431,3.509863 -0.851,1.08749 -2.422522,1.279072 -3.509863,0.427881 L 48.19189,59.645972 c -1.870243,-1.465126 -0.834803,-4.46762 1.540992,-4.468461 h 7.554577 0.668177 V 47.384188 H 28.264425 l 0.111104,18.637105 c 0.0086,1.380807 -1.103795,2.507136 -2.484603,2.515609 -1.380803,0.0086 -2.507136,-1.103799 -2.515609,-2.484603 L 23.24871,44.898035 c -0.0074,-1.385779 1.113792,-2.513196 2.499589,-2.513542 z"
         id="path12011"
         sodipodi:nodetypes="ccccccccccccccccccccccccccccccccccccccccccccccccccccc"
         inkscape:export-filename=".\justr8.svg"
         inkscape:export-xdpi="107.42"
         inkscape:export-ydpi="107.42" />
    </g>
  </g>
</svg>
