<?xml version="1.0" encoding="UTF-8" standalone="no"?>
<!-- Created with Inkscape (http://www.inkscape.org/) -->

<svg
   width="107.53252mm"
   height="56.749504mm"
   viewBox="0 0 107.53252 56.749504"
   version="1.1"
   id="svg5"
   xmlns="http://www.w3.org/2000/svg"
   xmlns:svg="http://www.w3.org/2000/svg">
  <defs
     id="defs2">
    <rect
       x="299.68759"
       y="147.45013"
       width="305.4324"
       height="257.55899"
       id="rect11417" />
  </defs>
  <g
     id="layer1"
     transform="translate(-14.727146,-15.066695)">
    <path
       id="rect244"
       style="opacity:0.99;fill:#00d5fa;fill-opacity:1;stroke:#ffffff;stroke-width:0;stroke-linecap:round;stroke-linejoin:round;stroke-dashoffset:2567.09;stroke-opacity:1;paint-order:stroke fill markers"
       d="m 18.727427,15.066695 c -2.21603,0 -4.00028,1.784249 -4.00028,4.000273 V 67.81645 c 0,2.21601 1.78425,3.99975 4.00028,3.99975 h 48.74948 c 2.21601,0 3.99975,-1.78374 3.99975,-3.99975 V 19.066968 c 0,-2.216024 -1.78374,-4.000273 -3.99975,-4.000273 z m 7.4011,4.233851 h 13.67926 c 0.536768,-7.6e-5 1.05931,0.172594 1.49035,0.492476 l 2.12907,1.579748 2.28513,-1.613338 c 0.422097,-0.298504 0.926348,-0.458824 1.44333,-0.458886 h 12.92014 c 1.380537,3.61e-4 2.499513,1.119568 2.49959,2.500105 v 16.958138 c -7.7e-5,1.380537 -1.119053,2.499744 -2.49959,2.500106 h -12.79302 c -0.444199,4.45e-4 -0.880497,-0.117459 -1.26401,-0.341581 l -2.54868,-1.494483 -2.158,1.424203 c -0.408848,0.269134 -0.887701,0.412341 -1.37718,0.411861 h -13.80639 c -1.38074,-7.5e-5 -2.500033,-1.119366 -2.50011,-2.500106 V 21.800651 c 7.7e-5,-1.38074 1.11937,-2.500031 2.50011,-2.500105 z m 2.49958,5.000211 V 36.2592 h 10.55698 l 2.8298,-1.867586 c 0.795391,-0.523817 1.819297,-0.550265 2.64067,-0.06821 l 3.30471,1.935799 h 9.61543 V 24.30076 h -9.62732 l -3.11505,2.200899 c -0.88182,0.623179 -2.064072,0.609843 -2.93161,-0.03307 l -2.91972,-2.167826 z m -2.87992,18.08365 h 34.70744 c 1.380536,3.64e-4 2.499511,1.11957 2.49959,2.500106 V 57.67701 c -7.7e-5,1.380538 -1.119052,2.499746 -2.49959,2.50011 h -3.16828 -0.30283 l 4.80126,3.75791 c 1.087988,0.850533 1.28027,2.422112 0.42943,3.50986 -0.851001,1.087491 -2.422518,1.279072 -3.50986,0.42788 l -10.51357,-8.22688 c -1.870245,-1.465127 -0.834807,-4.467624 1.54099,-4.468465 h 7.55458 0.66817 v -7.793323 h -29.69121 l 0.11111,18.637108 c 0.0086,1.380808 -1.103801,2.507137 -2.48461,2.51561 -1.380804,0.0086 -2.507127,-1.103805 -2.5156,-2.48461 l -0.12661,-21.154261 c -0.0074,-1.38578 1.113791,-2.513196 2.49959,-2.513542 z" />
    <text
       xml:space="preserve"
       transform="matrix(0.26458333,0,0,0.26458333,-3.7623769,-2.3008676)"
       id="text11415"
       style="font-style:normal;font-variant:normal;font-weight:normal;font-stretch:normal;font-size:140px;font-family:'Agency FB';-inkscape-font-specification:'Agency FB';white-space:pre;shape-inside:url(#rect11417);opacity:0.99;fill:#000000;fill-opacity:1;stroke:#000000;stroke-width:3.77953;stroke-linecap:square;stroke-linejoin:round;stroke-dasharray:none;stroke-dashoffset:2567.09;stroke-opacity:1;paint-order:fill markers stroke"><tspan
         x="299.6875"
         y="278.23774"
         id="tspan11933">HUB</tspan></text>
  </g>
</svg>
